<svg width="105" height="106" viewBox="0 0 105 106" fill="none" xmlns="http://www.w3.org/2000/svg">
<path d="M102 52.8773L103.061 53.9374L104.12 52.8773L103.061 51.8173L102 52.8773ZM52.1835 3L53.2448 1.93999L52.1835 0.877384L51.1222 1.93999L52.1835 3ZM101.819 53.0587L100.758 51.9987L99.6988 53.0587L100.758 54.1187L101.819 53.0587ZM101.883 53.1226L102.944 54.1826L104.003 53.1226L102.944 52.0626L101.883 53.1226ZM52.0662 103L51.0049 104.06L52.0662 105.123L53.1275 104.06L52.0662 103ZM45 95.9252L43.9387 94.8652L42.88 95.9252L43.9387 96.9852L45 95.9252ZM82.8789 58L83.9402 59.06L86.4971 56.5H82.8789V58ZM2 58H0.5V59.5H2V58ZM2 48V46.5H0.5V48H2ZM82.9962 48V49.5H86.6144L84.0575 46.94L82.9962 48ZM45.1173 10.0748L44.056 9.01479L42.9973 10.0748L44.056 11.1348L45.1173 10.0748ZM103.061 51.8173L53.2448 1.93999L51.1222 4.06001L100.939 53.9374L103.061 51.8173ZM102.88 54.1187L103.061 53.9374L100.939 51.8173L100.758 51.9987L102.88 54.1187ZM102.944 52.0626L102.88 51.9987L100.758 54.1187L100.821 54.1827L102.944 52.0626ZM53.1275 104.06L102.944 54.1826L100.821 52.0626L51.0049 101.94L53.1275 104.06ZM43.9387 96.9852L51.0049 104.06L53.1275 101.94L46.0613 94.8652L43.9387 96.9852ZM81.8176 56.94L43.9387 94.8652L46.0613 96.9852L83.9402 59.06L81.8176 56.94ZM82.8789 56.5H2V59.5H82.8789V56.5ZM3.5 58V48H0.5V58H3.5ZM2 49.5H82.9962V46.5H2V49.5ZM44.056 11.1348L81.9349 49.06L84.0575 46.94L46.1786 9.01479L44.056 11.1348ZM51.1222 1.93999L44.056 9.01479L46.1786 11.1348L53.2448 4.06001L51.1222 1.93999Z" fill="#0201FF"/>
</svg>
