<svg width="104" height="104" viewBox="0 0 104 104" fill="none" xmlns="http://www.w3.org/2000/svg">
<path d="M47 2V0.5H45.5V2H47ZM57 2H58.5V0.5H57V2ZM47 39.9289L45.9393 40.9896L48.5 43.5502V39.9289H47ZM22.1802 15.1091L23.2409 14.0485L22.1802 12.9878L21.1196 14.0485L22.1802 15.1091ZM15.1092 22.1802L14.0485 21.1195L12.9878 22.1802L14.0485 23.2409L15.1092 22.1802ZM39.929 47V48.5H43.5503L40.9896 45.9393L39.929 47ZM2 47V45.5H0.5V47H2ZM2 57H0.5V58.5H2V57ZM41.9289 57L42.9895 58.0607L45.5502 55.5H41.9289V57ZM15.1091 83.8198L14.0484 82.7591L12.9878 83.8198L14.0484 84.8804L15.1091 83.8198ZM22.1802 90.8909L21.1195 91.9515L22.1802 93.0122L23.2408 91.9515L22.1802 90.8909ZM47 66.071H48.5V62.4497L45.9393 65.0103L47 66.071ZM47 102H45.5V103.5H47V102ZM57 102V103.5H58.5V102H57ZM57 64.071L58.0607 63.0104L55.5 60.4497V64.071H57ZM85.8198 92.8909L84.7592 93.9515L85.8198 95.0122L86.8805 93.9515L85.8198 92.8909ZM92.8909 85.8198L93.9516 86.8805L95.0122 85.8198L93.9516 84.7591L92.8909 85.8198ZM64.0711 57V55.5H60.4498L63.0104 58.0607L64.0711 57ZM102 57V58.5H103.5V57H102ZM102 47H103.5V45.5H102V47ZM66.071 47L65.0104 45.9393L62.4497 48.5H66.071V47ZM92.8908 20.1802L93.9515 21.2408L95.0122 20.1802L93.9515 19.1195L92.8908 20.1802ZM85.8198 13.1091L86.8804 12.0485L85.8198 10.9878L84.7591 12.0485L85.8198 13.1091ZM57 41.9289H55.5V45.5502L58.0607 42.9895L57 41.9289ZM47 3.5H57V0.5H47V3.5ZM48.5 39.9289V2H45.5V39.9289H48.5ZM21.1196 16.1698L45.9393 40.9896L48.0607 38.8682L23.2409 14.0485L21.1196 16.1698ZM16.1698 23.2409L23.2409 16.1698L21.1196 14.0485L14.0485 21.1195L16.1698 23.2409ZM40.9896 45.9393L16.1698 21.1195L14.0485 23.2409L38.8683 48.0607L40.9896 45.9393ZM2 48.5H39.929V45.5H2V48.5ZM3.5 57V47H0.5V57H3.5ZM41.9289 55.5H2V58.5H41.9289V55.5ZM16.1697 84.8804L42.9895 58.0607L40.8682 55.9393L14.0484 82.7591L16.1697 84.8804ZM23.2408 89.8302L16.1697 82.7591L14.0484 84.8804L21.1195 91.9515L23.2408 89.8302ZM45.9393 65.0103L21.1195 89.8302L23.2408 91.9515L48.0607 67.1317L45.9393 65.0103ZM48.5 102V66.071H45.5V102H48.5ZM57 100.5H47V103.5H57V100.5ZM55.5 64.071V102H58.5V64.071H55.5ZM86.8805 91.8302L58.0607 63.0104L55.9393 65.1317L84.7592 93.9515L86.8805 91.8302ZM91.8302 84.7591L84.7592 91.8302L86.8805 93.9515L93.9516 86.8805L91.8302 84.7591ZM63.0104 58.0607L91.8302 86.8805L93.9516 84.7591L65.1318 55.9393L63.0104 58.0607ZM102 55.5H64.0711V58.5H102V55.5ZM100.5 47V57H103.5V47H100.5ZM66.071 48.5H102V45.5H66.071V48.5ZM91.8302 19.1195L65.0104 45.9393L67.1317 48.0607L93.9515 21.2408L91.8302 19.1195ZM84.7591 14.1698L91.8302 21.2408L93.9515 19.1195L86.8804 12.0485L84.7591 14.1698ZM58.0607 42.9895L86.8804 14.1698L84.7591 12.0485L55.9393 40.8682L58.0607 42.9895ZM55.5 2V41.9289H58.5V2H55.5Z" fill="#0201FF"/>
</svg>
