<svg width="104" height="104" viewBox="0 0 104 104" fill="none" xmlns="http://www.w3.org/2000/svg">
<path d="M27 50.5C14.0213 50.5 3.5 39.9787 3.5 27H0.5C0.5 41.6355 12.3645 53.5 27 53.5V50.5ZM3.5 77C3.5 64.0213 14.0213 53.5 27 53.5V50.5C12.3645 50.5 0.5 62.3645 0.5 77H3.5ZM27 100.5C14.0213 100.5 3.5 89.9787 3.5 77H0.5C0.5 91.6355 12.3645 103.5 27 103.5V100.5ZM50.5 77C50.5 89.9787 39.9787 100.5 27 100.5V103.5C41.6355 103.5 53.5 91.6355 53.5 77H50.5ZM77 100.5C64.0213 100.5 53.5 89.9787 53.5 77H50.5C50.5 91.6355 62.3645 103.5 77 103.5V100.5ZM100.5 77C100.5 89.9787 89.9787 100.5 77 100.5V103.5C91.6355 103.5 103.5 91.6355 103.5 77H100.5ZM77 53.5C89.9787 53.5 100.5 64.0213 100.5 77H103.5C103.5 62.3645 91.6355 50.5 77 50.5V53.5ZM100.5 27C100.5 39.9787 89.9787 50.5 77 50.5V53.5C91.6355 53.5 103.5 41.6355 103.5 27H100.5ZM77 3.5C89.9787 3.5 100.5 14.0213 100.5 27H103.5C103.5 12.3645 91.6355 0.5 77 0.5V3.5ZM53.5 27C53.5 14.0213 64.0213 3.5 77 3.5V0.5C62.3645 0.5 50.5 12.3645 50.5 27H53.5ZM27 3.5C39.9787 3.5 50.5 14.0213 50.5 27H53.5C53.5 12.3645 41.6355 0.5 27 0.5V3.5ZM3.5 27C3.5 14.0213 14.0213 3.5 27 3.5V0.5C12.3645 0.5 0.5 12.3645 0.5 27H3.5Z" fill="#0201FF"/>
</svg>
