<svg width="102" height="50" viewBox="0 0 102 50" fill="none" xmlns="http://www.w3.org/2000/svg">
<path d="M101.339 24.8661C101.339 40.0446 93.4822 48.6161 78.5714 49.8661L63.8393 20.8482V0H72.4554C85.625 0.0892857 101.339 4.46429 101.339 24.8661Z" fill="#0201FF"/>
<path d="M76.6518 49.9554C76.0268 50 75.3571 50 74.6875 50H41.5625L33.4375 37.1429L51.7857 1.07144L62.0536 21.25L63.8393 24.7768L76.6518 49.9554Z" fill="#0201FF"/>
<path d="M39.4643 50H0V0H17.6339C28.125 0.0446429 39.2857 1.16071 39.2857 14.5536C39.2857 22.3661 35.5804 27.0089 27.6339 29.0625L26.4732 29.375L31.3839 37.1875L31.9196 38.0804L32.4554 38.9732L39.4643 50Z" fill="#0201FF"/>
</svg>
