<svg width="104" height="104" viewBox="0 0 104 104" fill="none" xmlns="http://www.w3.org/2000/svg">
<path d="M47 2V0.5H45.5V2H47ZM57 2H58.5V0.5H57V2ZM47 47V48.5H48.5V47H47ZM2 47V45.5H0.5V47H2ZM2 57H0.5V58.5H2V57ZM47 57H48.5V55.5H47V57ZM47 102H45.5V103.5H47V102ZM57 102V103.5H58.5V102H57ZM57 57V55.5H55.5V57H57ZM102 57V58.5H103.5V57H102ZM102 47H103.5V45.5H102V47ZM57 47H55.5V48.5H57V47ZM47 3.5H57V0.5H47V3.5ZM48.5 47V2H45.5V47H48.5ZM2 48.5H47V45.5H2V48.5ZM3.5 57V47H0.5V57H3.5ZM47 55.5H2V58.5H47V55.5ZM48.5 102V57H45.5V102H48.5ZM57 100.5H47V103.5H57V100.5ZM55.5 57V102H58.5V57H55.5ZM102 55.5H57V58.5H102V55.5ZM100.5 47V57H103.5V47H100.5ZM57 48.5H102V45.5H57V48.5ZM55.5 2V47H58.5V2H55.5Z" fill="#0201FF"/>
</svg>
